<svg width="16" height="16" viewBox="0 0 16 16" fill="none" xmlns="http://www.w3.org/2000/svg">
<rect width="16" height="16" fill="white"/>
<path d="M7.6619 13.9192C7.70625 13.9628 7.75922 13.9975 7.81768 14.0211C7.87615 14.0448 7.93895 14.057 8.00238 14.057C8.06581 14.057 8.12861 14.0448 8.18708 14.0211C8.24555 13.9975 8.29851 13.9628 8.34286 13.9192C9.2546 13.0075 10.107 12.0426 10.8952 11.03C11.981 9.61974 13 7.97139 13 6.73054C13 5.45546 12.4732 4.23261 11.5355 3.33099C10.5979 2.42937 9.32608 1.92285 8 1.92285C6.67392 1.92285 5.40215 2.42937 4.46447 3.33099C3.52678 4.23261 3 5.45546 3 6.73054C3.00476 9.24428 7.18571 13.4293 7.6619 13.9192ZM8.00476 2.8386C9.07787 2.83981 10.1067 3.25025 10.8655 3.97986C11.6243 4.70948 12.0511 5.69871 12.0524 6.73054C12.0524 7.59135 11.3381 8.83219 10.4619 10.0318C9.70759 11.0471 8.88688 12.0151 8.00476 12.9302C6.61905 11.497 3.95714 8.39263 3.95714 6.72597C3.96339 5.69561 4.39184 4.70917 5.14957 3.98059C5.90729 3.252 6.93319 2.84003 8.00476 2.83402V2.8386Z" fill="#86909C"/>
<path d="M7.86607 7.87958C8.24495 7.87958 8.60831 7.73486 8.87622 7.47725C9.14413 7.21965 9.29464 6.87026 9.29464 6.50595C9.29464 6.14164 9.14413 5.79225 8.87622 5.53465C8.60831 5.27705 8.24495 5.13232 7.86607 5.13232C7.48719 5.13232 7.12383 5.27705 6.85592 5.53465C6.58801 5.79225 6.4375 6.14164 6.4375 6.50595V6.54258C6.44743 6.9005 6.60231 7.24055 6.86915 7.49029C7.13599 7.74002 7.4937 7.8797 7.86607 7.87958Z" fill="#86909C"/>
</svg>
