<svg width="16" height="16" viewBox="0 0 16 16" fill="none" xmlns="http://www.w3.org/2000/svg">
<rect width="16" height="16" fill="white"/>
<path d="M7.6619 13.9194C7.70625 13.963 7.75922 13.9977 7.81768 14.0214C7.87615 14.045 7.93895 14.0572 8.00238 14.0572C8.06581 14.0572 8.12861 14.045 8.18708 14.0214C8.24555 13.9977 8.29851 13.963 8.34286 13.9194C9.2546 13.0077 10.107 12.0428 10.8952 11.0302C11.981 9.61998 13 7.97163 13 6.73079C13 5.45571 12.4732 4.23285 11.5355 3.33124C10.5979 2.42962 9.32608 1.9231 8 1.9231C6.67392 1.9231 5.40215 2.42962 4.46447 3.33124C3.52678 4.23285 3 5.45571 3 6.73079C3.00476 9.24452 7.18571 13.4295 7.6619 13.9194ZM8.00476 2.83885C9.07787 2.84006 10.1067 3.25049 10.8655 3.98011C11.6243 4.70973 12.0511 5.69895 12.0524 6.73079C12.0524 7.59159 11.3381 8.83244 10.4619 10.0321C9.70759 11.0473 8.88688 12.0154 8.00476 12.9304C6.61905 11.4973 3.95714 8.39288 3.95714 6.72621C3.96339 5.69586 4.39184 4.70941 5.14957 3.98083C5.90729 3.25225 6.93319 2.84028 8.00476 2.83427V2.83885Z" fill="#86909C"/>
<path d="M7.86583 7.87958C8.24471 7.87958 8.60807 7.73486 8.87598 7.47725C9.14389 7.21965 9.2944 6.87026 9.2944 6.50595C9.2944 6.14164 9.14389 5.79225 8.87598 5.53465C8.60807 5.27705 8.24471 5.13232 7.86583 5.13232C7.48695 5.13232 7.12358 5.27705 6.85567 5.53465C6.58777 5.79225 6.43726 6.14164 6.43726 6.50595V6.54258C6.44719 6.9005 6.60207 7.24055 6.86891 7.49029C7.13575 7.74002 7.49346 7.8797 7.86583 7.87958Z" fill="#86909C"/>
</svg>
