<svg width="36" height="36" viewBox="0 0 36 36" fill="none" xmlns="http://www.w3.org/2000/svg">
<path d="M31.6172 19.4018C31.3356 20.0058 30.8558 20.4846 30.281 20.7727L8.54972 31.7404C7.00804 32.4943 5.14764 31.8795 4.36521 30.3695C4.02082 29.6402 3.95096 28.8172 4.18939 28.0494L6.56602 20.3125C6.78364 19.6041 7.438 19.1205 8.17913 19.1205H16.4967C17.1081 19.1181 17.608 18.6241 17.622 17.9957C17.6181 17.3769 17.1244 16.8768 16.4967 16.8708H8.18525C7.4412 16.8708 6.78498 16.3835 6.56982 15.6712L4.22455 7.90676C3.73387 6.28739 4.66013 4.5602 6.29922 4.07508C7.05789 3.83658 7.87862 3.90897 8.58487 4.28602L30.281 15.2537C31.7966 16.0278 32.4065 17.8905 31.6172 19.4018Z" fill="#C9CDD4"/>
</svg>
