<svg width="24" height="24" viewBox="0 0 24 24" fill="none" xmlns="http://www.w3.org/2000/svg">
<path d="M12.0001 0.367676C5.56446 0.367676 0.347412 5.58475 0.347412 12.0204C0.347412 18.456 5.56446 23.673 12.0001 23.673C18.4357 23.673 23.6527 18.456 23.6527 12.0204C23.6527 5.58475 18.4357 0.367676 12.0001 0.367676H12.0001ZM16.9972 15.5068C17.4144 15.9241 17.4144 16.6003 16.9972 17.0175C16.5801 17.4346 15.9037 17.4346 15.4865 17.0175L12.0001 13.531L8.51353 17.0175C8.09637 17.4346 7.42012 17.4346 7.00298 17.0175C6.5857 16.6003 6.5857 15.9241 7.00298 15.5068L10.4894 12.0204L7.00296 8.53391C6.5857 8.11677 6.5857 7.44039 7.00296 7.02325C7.42012 6.60611 8.09637 6.60611 8.51351 7.02325L12.0001 10.5097L15.4865 7.02325C15.9037 6.60611 16.5801 6.60611 16.9972 7.02325C17.4144 7.44039 17.4144 8.11677 16.9972 8.53391L13.5108 12.0204L16.9972 15.5068Z" fill="#F53F3F"/>
</svg>
