<svg width="18" height="18" viewBox="0 0 18 18" fill="none" xmlns="http://www.w3.org/2000/svg">
<path d="M16.7676 16.5696C16.6463 16.7576 16.4372 16.8701 16.2122 16.8684H1.7647C1.5397 16.8701 1.33052 16.7576 1.20923 16.5696C1.09497 16.385 1.09497 16.1529 1.20923 15.9701C1.32876 15.7803 1.5397 15.6643 1.7647 15.666H16.2086C16.4336 15.6643 16.6428 15.7768 16.7641 15.9649C16.8854 16.1477 16.8854 16.3832 16.7676 16.5696Z" fill="#1D2129"/>
<path d="M15.1666 3.58091L13.219 1.63325C12.5018 0.952979 11.3803 0.952979 10.6649 1.63325L4.89923 7.39009C4.284 8.06333 3.89025 8.9106 3.77423 9.81587L3.64415 11.3803C3.52286 12.8569 3.52286 12.8569 3.72677 13.0625C3.84103 13.175 3.99571 13.2401 4.15568 13.2401C4.23302 13.2401 4.65138 13.2049 5.41075 13.1434L6.97696 13.0133C7.88224 12.8956 8.72775 12.5036 9.40275 11.8901L15.1649 6.13325C15.868 5.4231 15.868 4.28579 15.1666 3.58091ZM14.3141 5.27895L8.55548 11.0323C8.08439 11.4489 7.50255 11.7196 6.88029 11.8092L5.31407 11.9393L4.80607 11.9815L4.84825 11.4735L4.98185 9.91079C5.0715 9.28853 5.34044 8.70669 5.7588 8.2356L11.5192 2.48052C11.7565 2.24849 12.1326 2.24849 12.3664 2.48052L14.3176 4.42817H14.3158C14.5443 4.66372 14.5443 5.04165 14.3141 5.27895Z" fill="#1D2129"/>
</svg>
