<svg width="48" height="48" viewBox="0 0 48 48" fill="none" xmlns="http://www.w3.org/2000/svg">
<path d="M28.2255 3C28.4105 3.00003 28.5889 3.06841 28.7265 3.192L41.751 14.877C41.8293 14.9473 41.892 15.0334 41.9349 15.1295C41.9778 15.2256 42 15.3297 42 15.435V40.5C42 41.6935 41.5259 42.8381 40.682 43.682C39.8381 44.5259 38.6935 45 37.5 45H10.5C9.30653 45 8.16193 44.5259 7.31802 43.682C6.47411 42.8381 6 41.6935 6 40.5V7.5C6 6.30653 6.47411 5.16193 7.31802 4.31802C8.16193 3.47411 9.30653 3 10.5 3H28.2255ZM27 6H10.5C10.1022 6 9.72064 6.15804 9.43934 6.43934C9.15804 6.72064 9 7.10218 9 7.5V40.5C9 40.8978 9.15804 41.2794 9.43934 41.5607C9.72064 41.842 10.1022 42 10.5 42H37.5C37.8978 42 38.2794 41.842 38.5607 41.5607C38.842 41.2794 39 40.8978 39 40.5V18.0555H31.5C30.3065 18.0555 29.1619 17.5814 28.318 16.7375C27.4741 15.8936 27 14.749 27 13.5555V6ZM25.464 20.2665L31.461 25.44C31.6154 25.567 31.7428 25.7236 31.8358 25.9006C31.9288 26.0776 31.9855 26.2714 32.0025 26.4706C32.0195 26.6698 31.9966 26.8703 31.9349 27.0605C31.8733 27.2507 31.7743 27.4267 31.6437 27.5781C31.5132 27.7295 31.3536 27.8532 31.1745 27.9421C30.9954 28.0309 30.8004 28.083 30.6009 28.0954C30.4013 28.1078 30.2013 28.0802 30.0126 28.0142C29.8239 27.9481 29.6503 27.8451 29.502 27.711L25.5165 24.2745V34.5C25.5165 34.8978 25.3585 35.2794 25.0772 35.5607C24.7959 35.842 24.4143 36 24.0165 36C23.6187 36 23.2371 35.842 22.9558 35.5607C22.6745 35.2794 22.5165 34.8978 22.5165 34.5V24.081L18.3645 27.336C18.0771 27.5612 17.7175 27.6739 17.353 27.6529C16.9885 27.6319 16.6441 27.4787 16.3845 27.222L16.2585 27.081C16.137 26.926 16.0471 26.7485 15.9942 26.5588C15.9412 26.3691 15.9261 26.1707 15.9498 25.9752C15.9735 25.7796 16.0355 25.5906 16.1322 25.419C16.2289 25.2474 16.3585 25.0965 16.5135 24.975L22.6065 20.2005C23.0167 19.8788 23.5259 19.7094 24.0471 19.7215C24.5683 19.7335 25.0691 19.9262 25.464 20.2665ZM30 8.364V13.557C30 13.9548 30.158 14.3364 30.4393 14.6177C30.7206 14.899 31.1022 15.057 31.5 15.057L37.458 15.0555L29.9985 8.364H30Z" fill="black"/>
</svg>
