<svg width="48" height="48" viewBox="0 0 48 48" fill="none" xmlns="http://www.w3.org/2000/svg">
<path d="M42.156 25.869C41.7804 26.6744 41.1407 27.3129 40.3743 27.697L11.3993 42.3206C9.34373 43.3257 6.8632 42.506 5.81995 40.4926C5.36076 39.5203 5.26762 38.4229 5.58553 37.3991L8.75437 27.0834C9.04453 26.1388 9.91701 25.4941 10.9052 25.4941H21.9953C22.8105 25.4908 23.4771 24.8322 23.4957 23.9942C23.4905 23.1692 22.8322 22.5024 21.9953 22.4943H10.9133C9.92128 22.4943 9.04631 21.8446 8.75944 20.8949L5.6324 10.5423C4.97817 8.38319 6.21319 6.08027 8.39864 5.43344C9.4102 5.11544 10.5045 5.21195 11.4462 5.71469L40.3743 20.3383C42.3951 21.3704 43.2084 23.854 42.156 25.869Z" fill="#333333"/>
</svg>
