<svg width="32" height="32" viewBox="0 0 32 32" fill="none" xmlns="http://www.w3.org/2000/svg">
<path d="M16 2.03125C8.28531 2.03125 2.03125 8.28531 2.03125 16C2.03125 23.7147 8.28531 29.9688 16 29.9688C23.7147 29.9688 29.9688 23.7147 29.9688 16C29.9688 8.28531 23.7147 2.03125 16 2.03125ZM24.3275 16.375C24.1407 16.5756 23.8842 16.6972 23.6107 16.7146C23.3371 16.732 23.0673 16.6441 22.8566 16.4688L22.1419 15.8675V21.7563C22.1419 23.1431 21.7216 24.2716 20.2809 24.2716H18.75C18.2563 24.2716 17.8303 23.9378 17.7294 23.4728L17.7041 23.355C17.6895 23.2879 17.6821 23.2193 17.6822 23.1506V18.5312C17.6822 18.25 17.445 18.0234 17.1541 18.0234H14.8456C14.5553 18.0234 14.3184 18.2516 14.3184 18.5312V23.2681C14.3184 23.8222 13.8516 24.2716 13.2762 24.2716H11.7188C10.2784 24.2716 9.85781 23.1431 9.85781 21.7563V15.8675L9.14344 16.4688C8.93284 16.6443 8.66293 16.7325 8.38928 16.7151C8.11564 16.6976 7.8591 16.5759 7.6725 16.375C7.58269 16.2771 7.51376 16.162 7.46991 16.0367C7.42606 15.9113 7.40821 15.7783 7.41745 15.6458C7.42669 15.5133 7.46283 15.3841 7.52366 15.266C7.58449 15.1479 7.66873 15.0435 7.77125 14.9591L15.3125 7.97844C15.4863 7.83302 15.7018 7.74635 15.9279 7.73086C16.154 7.71536 16.3792 7.77184 16.5713 7.89219L16.6087 7.91656L16.6134 7.92031L16.6447 7.94344L16.6547 7.95156L16.6809 7.9725L16.6856 7.97594L24.2288 14.9581C24.3314 15.0426 24.4158 15.1471 24.4767 15.2652C24.5376 15.3834 24.5738 15.5127 24.583 15.6453C24.5923 15.7779 24.5744 15.911 24.5305 16.0365C24.4865 16.1619 24.4175 16.2771 24.3275 16.375Z" fill="#3964F5"/>
</svg>
