<svg width="24" height="24" viewBox="0 0 24 24" fill="none" xmlns="http://www.w3.org/2000/svg">
<path d="M22.7638 15.6961H18.9238V11.8561C18.9238 11.7241 18.8158 11.6161 18.6838 11.6161H17.7238C17.5918 11.6161 17.4838 11.7241 17.4838 11.8561V15.6961H13.6438C13.5118 15.6961 13.4038 15.8041 13.4038 15.9361V16.8961C13.4038 17.0281 13.5118 17.1361 13.6438 17.1361H17.4838V20.9761C17.4838 21.1081 17.5918 21.2161 17.7238 21.2161H18.6838C18.8158 21.2161 18.9238 21.1081 18.9238 20.9761V17.1361H22.7638C22.8958 17.1361 23.0038 17.0281 23.0038 16.8961V15.9361C23.0038 15.8041 22.8958 15.6961 22.7638 15.6961ZM7.77581 3.85211C9.16781 3.85211 10.4878 4.39211 11.4958 5.36411L11.9998 5.85611L12.5038 5.36411C13.5118 4.39211 14.8318 3.85211 16.2238 3.85211C19.1638 3.85211 21.5638 6.25211 21.5638 9.19211C21.5638 9.62411 21.4798 10.0681 21.3238 10.5361C21.3238 10.5361 21.2518 10.7521 21.2518 10.8721C21.2518 11.2681 21.5758 11.5921 21.9718 11.5921C22.3198 11.5921 22.5718 11.2441 22.6798 11.0041C22.7758 10.7881 23.0158 9.79211 23.0158 9.19211C23.0158 5.44811 19.9798 2.41211 16.2358 2.41211C14.6878 2.41211 13.2118 2.92811 12.0118 3.88811C10.8118 2.92811 9.33581 2.41211 7.78781 2.41211C4.04381 2.41211 1.00781 5.44811 1.00781 9.19211C1.00781 13.9681 8.81981 19.5121 11.1958 21.0841C11.2078 21.0961 11.2318 21.1081 11.2318 21.1081C11.2318 21.1081 11.4718 21.2161 11.6038 21.2161C11.9998 21.2161 12.3238 20.8921 12.3238 20.4961C12.3238 20.2441 12.1918 20.0161 11.9878 19.8961C8.99981 17.9761 2.42381 12.9841 2.42381 9.19211C2.43581 6.25211 4.83581 3.85211 7.77581 3.85211Z" fill="#86909C"/>
</svg>
