<svg width="24" height="24" viewBox="0 0 24 24" fill="none" xmlns="http://www.w3.org/2000/svg">
<path d="M20.9222 12.3251C20.9311 12.3071 20.9388 12.289 20.9463 12.2703C20.9548 12.2485 20.9616 12.2262 20.9679 12.2039C20.978 12.1685 20.9854 12.1323 20.9899 12.0957C20.9925 12.0748 20.9955 12.0539 20.9965 12.0328C20.997 12.0214 21 12.0106 21 11.9991C21 11.9836 20.9965 11.9691 20.9955 11.9539C20.9945 11.9397 20.9931 11.9255 20.9913 11.9114C20.9883 11.8875 20.9857 11.8636 20.9803 11.8404C20.9725 11.8029 20.9617 11.7661 20.9482 11.7303C20.9463 11.7251 20.9454 11.7197 20.9433 11.7146C20.9274 11.6772 20.9084 11.6412 20.8866 11.607C20.8819 11.5995 20.8788 11.5913 20.8739 11.5838C20.8463 11.542 20.8146 11.5032 20.7792 11.4678L20.779 11.4673L16.2813 6.96965C16.1407 6.82901 15.9499 6.75 15.7511 6.75C15.5522 6.75 15.3614 6.82901 15.2208 6.96965C15.0801 7.11028 15.0011 7.30103 15.0011 7.49992C15.0011 7.69881 15.0801 7.88956 15.2208 8.03019L18.4392 11.2486H8.25C8.05109 11.2486 7.86032 11.3276 7.71967 11.4683C7.57902 11.609 7.5 11.7997 7.5 11.9986C7.5 12.1975 7.57902 12.3883 7.71967 12.529C7.86032 12.6696 8.05109 12.7486 8.25 12.7486H18.4371L15.2173 15.9687C15.1122 16.0736 15.0407 16.2072 15.0117 16.3528C14.9827 16.4983 14.9975 16.6492 15.0543 16.7863C15.1111 16.9234 15.2073 17.0405 15.3307 17.1229C15.4541 17.2053 15.5993 17.2492 15.7477 17.2491C15.9398 17.2491 16.1316 17.176 16.278 17.0293L20.767 12.5403L20.7792 12.5281C20.8083 12.499 20.8338 12.4681 20.857 12.436C20.8655 12.4245 20.872 12.4118 20.88 12.3996C20.8955 12.3755 20.9098 12.3507 20.9222 12.3251Z" fill="#1D2129"/>
<path d="M14.2502 19.5H5.25023C5.05138 19.4998 4.86072 19.4207 4.72011 19.2801C4.5795 19.1395 4.50042 18.9489 4.50023 18.75V5.25C4.50023 4.83633 4.8368 4.5 5.25023 4.5H14.2502C14.4491 4.5 14.6399 4.42098 14.7806 4.28033C14.9212 4.13968 15.0002 3.94891 15.0002 3.75C15.0002 3.55109 14.9212 3.36032 14.7806 3.21967C14.6399 3.07902 14.4491 3 14.2502 3H5.25023C4.00945 3 3 4.00945 3 5.25V18.75C3 19.9905 4.00945 21 5.25023 21H14.2502C14.4491 21 14.6399 20.921 14.7806 20.7803C14.9212 20.6397 15.0002 20.4489 15.0002 20.25C15.0002 20.0511 14.9212 19.8603 14.7806 19.7197C14.6399 19.579 14.4491 19.5 14.2502 19.5Z" fill="#1D2129"/>
</svg>
