<svg width="48" height="48" viewBox="0 0 48 48" fill="none" xmlns="http://www.w3.org/2000/svg">
<path d="M8.39062 3H30.3516L40.8047 13.5703V43.8281C40.8047 44.4753 40.28 45 39.6328 45H8.39062C7.74342 45 7.21875 44.4753 7.21875 43.8281V4.17188C7.21875 3.52467 7.74342 3 8.39062 3Z" fill="#DC2E1B"/>
<path d="M30.3516 3V12.3984C30.3516 13.0456 30.8762 13.5703 31.5234 13.5703H40.8047L30.3516 3Z" fill="#FF97A9"/>
<path d="M32.4337 38.0625C30.3524 38.0625 28.4859 34.4911 27.5039 32.1688C25.8518 31.4793 24.0308 30.8352 22.2618 30.4189C20.7139 31.4402 18.0799 32.9689 16.0572 32.9689C14.8019 32.9689 13.8979 32.3379 13.5662 31.2386C13.3126 30.3344 13.5272 29.7098 13.8004 29.3715C14.3337 28.643 15.4328 28.2722 17.0783 28.2722C18.4116 28.2722 20.1025 28.5064 21.9886 28.9617C23.2048 28.0965 24.4405 27.0947 25.5397 26.0344C25.0519 23.7186 24.5186 19.965 25.8714 18.2347C26.5412 17.4085 27.5624 17.1353 28.7981 17.5061C30.1509 17.8964 30.6646 18.7226 30.8207 19.3731C31.3931 21.6304 28.7981 24.6748 27.0486 26.4638C27.4388 28.012 27.9526 29.6448 28.577 31.1409C31.0874 32.2598 34.0726 33.9317 34.4108 35.7532C34.5474 36.3841 34.3523 36.9696 33.8385 37.4835C33.3962 37.8478 32.928 38.0625 32.4337 38.0625ZM30.5625 34.125C31.0204 35.1441 31.4569 35.625 31.687 35.625C31.7227 35.625 31.7725 35.6094 31.8436 35.547C31.929 35.4534 31.929 35.391 31.9148 35.3339C31.8674 35.0661 31.4806 34.6268 30.5625 34.125ZM17.3474 30C16.6152 30 16.414 30.1769 16.3527 30.2595C16.3352 30.286 16.2827 30.3656 16.3352 30.5719C16.379 30.7488 16.5015 30.9375 16.8807 30.9375C17.3561 30.9375 18.0445 30.6692 18.8437 30.1887C18.2721 30.0619 17.7674 30 17.3474 30ZM24.5156 29.0898C24.9531 29.2117 25.4067 29.3687 25.8281 29.5313C25.6751 29.1304 25.5517 28.7133 25.447 28.3125C25.1419 28.578 24.8314 28.8371 24.5156 29.0898ZM27.6078 20.2969C27.4522 20.2969 27.343 20.3545 27.2447 20.4615C26.9554 20.8263 26.9226 21.7452 27.1464 22.9219C27.9954 22.0112 28.4567 21.1746 28.3421 20.7275C28.3257 20.6617 28.2765 20.4615 27.8807 20.3462C27.7715 20.3133 27.6897 20.2969 27.6078 20.2969Z" fill="white"/>
</svg>
