<svg width="28" height="28" viewBox="0 0 28 28" fill="none" xmlns="http://www.w3.org/2000/svg">
<path d="M6.99984 2.33301H20.9998C22.7717 2.33301 24.2082 3.76947 24.2082 5.54134V22.458C24.2082 24.2299 22.7717 25.6663 20.9998 25.6663H6.99984C5.22796 25.6663 3.7915 24.2299 3.7915 22.458V5.54134C3.7915 3.76947 5.22796 2.33301 6.99984 2.33301ZM6.99984 4.08301C6.80833 4.08301 6.61869 4.12073 6.44176 4.19402C6.26482 4.2673 6.10406 4.37472 5.96864 4.51014C5.83322 4.64556 5.7258 4.80633 5.65251 4.98326C5.57922 5.16019 5.5415 5.34983 5.5415 5.54134V22.458C5.5415 22.6495 5.57922 22.8392 5.65251 23.0161C5.7258 23.193 5.83322 23.3538 5.96864 23.4892C6.10406 23.6246 6.26482 23.732 6.44176 23.8053C6.61869 23.8786 6.80833 23.9163 6.99984 23.9163H20.9998C21.1914 23.9163 21.381 23.8786 21.5579 23.8053C21.7349 23.732 21.8956 23.6246 22.031 23.4892C22.1665 23.3538 22.2739 23.193 22.3472 23.0161C22.4205 22.8392 22.4582 22.6495 22.4582 22.458V5.54134C22.4582 5.34983 22.4205 5.16019 22.3472 4.98326C22.2739 4.80633 22.1665 4.64556 22.031 4.51014C21.8956 4.37472 21.7349 4.2673 21.5579 4.19402C21.381 4.12073 21.1914 4.08301 20.9998 4.08301H6.99984ZM11.6665 20.9997C11.4344 20.9997 11.2119 20.9075 11.0478 20.7434C10.8837 20.5793 10.7915 20.3567 10.7915 20.1247C10.7915 19.8926 10.8837 19.67 11.0478 19.506C11.2119 19.3419 11.4344 19.2497 11.6665 19.2497H16.3332C16.5652 19.2497 16.7878 19.3419 16.9519 19.506C17.116 19.67 17.2082 19.8926 17.2082 20.1247C17.2082 20.3567 17.116 20.5793 16.9519 20.7434C16.7878 20.9075 16.5652 20.9997 16.3332 20.9997H11.6665Z" fill="black"/>
</svg>
