<svg width="48" height="48" viewBox="0 0 48 48" fill="none" xmlns="http://www.w3.org/2000/svg">
<path d="M8.39062 3H30.3516L40.8047 13.5703V43.8281C40.8047 44.4753 40.28 45 39.6328 45H8.39062C7.74342 45 7.21875 44.4753 7.21875 43.8281V4.17188C7.21875 3.52467 7.74342 3 8.39062 3Z" fill="#7D8289"/>
<path d="M30.3516 3V12.3984C30.3516 13.0456 30.8762 13.5703 31.5234 13.5703H40.8047L30.3516 3Z" fill="#565E69"/>
<path d="M29.1855 18.8144C29.0137 18.9861 28.7847 19.0887 28.5422 19.1026C28.2996 19.1164 28.0604 19.0406 27.8701 18.8896C27.7709 18.8097 27.6684 18.7338 27.563 18.6622C26.4182 17.8995 25.0585 17.5248 23.6846 17.5933C22.3106 17.6619 20.995 18.17 19.9317 19.0429C18.8685 19.9158 18.1138 21.1072 17.7789 22.4415C17.4441 23.7758 17.5468 25.1824 18.0719 26.4539C18.6117 27.7571 19.5659 28.8461 20.7869 29.5525C22.008 30.2588 23.4277 30.5431 24.8266 30.3615C26.2254 30.1798 27.5254 29.5422 28.5255 28.5473C29.5255 27.5525 30.1699 26.2559 30.3589 24.858C30.389 24.6208 30.5046 24.4029 30.684 24.2449C30.8634 24.0869 31.0943 23.9998 31.3333 24H31.4048C31.5173 24 31.6286 24.0237 31.7313 24.0695C31.8341 24.1153 31.9261 24.1822 32.0013 24.2659C32.0765 24.3496 32.1333 24.4482 32.1679 24.5552C32.2025 24.6623 32.2142 24.7754 32.2023 24.8873C32.0064 26.6964 31.2178 28.39 29.9594 29.7044C28.7009 31.0188 27.0432 31.8803 25.2443 32.1547C23.4455 32.4291 21.6063 32.1011 20.0132 31.2216C18.4201 30.3422 17.1625 28.9608 16.4361 27.2923C15.7097 25.6239 15.5553 23.7621 15.9969 21.9968C16.4385 20.2315 17.4514 18.6618 18.8778 17.5319C20.3043 16.4021 22.0643 15.7755 23.8838 15.7498C25.7033 15.7242 27.4803 16.3008 28.938 17.3899C28.993 17.4311 29.0545 17.4797 29.1232 17.5366C29.2163 17.613 29.2924 17.7082 29.3465 17.8158C29.4006 17.9235 29.4316 18.0413 29.4375 18.1617C29.4434 18.282 29.424 18.4023 29.3806 18.5147C29.3372 18.6271 29.2708 18.7292 29.1855 18.8144Z" fill="white"/>
</svg>
