<svg width="36" height="36" viewBox="0 0 36 36" fill="none" xmlns="http://www.w3.org/2000/svg">
<path d="M21.1691 2.25C21.3078 2.25002 21.4417 2.30131 21.5449 2.394L31.3132 11.1578C31.372 11.2105 31.419 11.275 31.4512 11.3471C31.4834 11.4192 31.5 11.4973 31.5 11.5763V30.375C31.5 31.2701 31.1444 32.1286 30.5115 32.7615C29.8786 33.3944 29.0201 33.75 28.125 33.75H7.875C6.97989 33.75 6.12145 33.3944 5.48851 32.7615C4.85558 32.1286 4.5 31.2701 4.5 30.375V5.625C4.5 4.72989 4.85558 3.87145 5.48851 3.23851C6.12145 2.60558 6.97989 2.25 7.875 2.25H21.1691ZM20.25 4.5H7.875C7.57663 4.5 7.29048 4.61853 7.0795 4.8295C6.86853 5.04048 6.75 5.32663 6.75 5.625V30.375C6.75 30.6734 6.86853 30.9595 7.0795 31.1705C7.29048 31.3815 7.57663 31.5 7.875 31.5H28.125C28.4234 31.5 28.7095 31.3815 28.9205 31.1705C29.1315 30.9595 29.25 30.6734 29.25 30.375V13.5416H23.625C22.7299 13.5416 21.8714 13.186 21.2385 12.5531C20.6056 11.9202 20.25 11.0617 20.25 10.1666V4.5ZM19.098 15.1999L23.5958 19.08C23.7115 19.1753 23.8071 19.2927 23.8769 19.4255C23.9466 19.5582 23.9891 19.7035 24.0019 19.8529C24.0146 20.0023 23.9974 20.1528 23.9512 20.2954C23.905 20.4381 23.8307 20.57 23.7328 20.6836C23.6349 20.7971 23.5152 20.8899 23.3809 20.9565C23.2466 21.0232 23.1003 21.0623 22.9506 21.0716C22.801 21.0809 22.651 21.0601 22.5095 21.0106C22.3679 20.9611 22.2377 20.8838 22.1265 20.7833L19.1374 18.2059V25.875C19.1374 26.1734 19.0188 26.4595 18.8079 26.6705C18.5969 26.8815 18.3107 27 18.0124 27C17.714 27 17.4279 26.8815 17.2169 26.6705C17.0059 26.4595 16.8874 26.1734 16.8874 25.875V18.0608L13.7734 20.502C13.5578 20.6709 13.2881 20.7554 13.0147 20.7397C12.7413 20.724 12.4831 20.609 12.2884 20.4165L12.1939 20.3108C12.1027 20.1945 12.0354 20.0614 11.9956 19.9191C11.9559 19.7768 11.9446 19.6281 11.9624 19.4814C11.9801 19.3347 12.0266 19.193 12.0991 19.0643C12.1717 18.9356 12.2689 18.8224 12.3851 18.7312L16.9549 15.1504C17.2625 14.9091 17.6444 14.7821 18.0353 14.7911C18.4262 14.8001 18.8018 14.9446 19.098 15.1999ZM22.5 6.273V10.1678C22.5 10.4661 22.6185 10.7523 22.8295 10.9632C23.0405 11.1742 23.3266 11.2928 23.625 11.2928L28.0935 11.2916L22.4989 6.273H22.5Z" fill="#86909C"/>
</svg>
